<svg width="19" height="21" fill="none" xmlns="http://www.w3.org/2000/svg"><path opacity=".3" d="M9.5 19.0909c-5.2469 0-9.5-4.2745-9.5-9.5455v1.9091C0 16.7255 4.2531 21 9.5 21c5.2459 0 9.5-4.2745 9.5-9.5455v-1.909c0 5.2709-4.2541 9.5454-9.5 9.5454z" fill="#ABABAB"/><path d="M9.5 19.0909c5.2467 0 9.5-4.2736 9.5-9.5455C19 4.2737 14.7467 0 9.5 0S0 4.2736 0 9.5455c0 5.2718 4.2533 9.5454 9.5 9.5454z" fill="#fff"/><path d="M9.5 11.4545c1.0493 0 1.9-.8547 1.9-1.909 0-1.0544-.8507-1.9092-1.9-1.9092-1.0494 0-1.9.8548-1.9 1.9091 0 1.0544.8506 1.9091 1.9 1.9091z" fill="#ABABAB"/></svg>