<svg width="23" height="24" fill="none" xmlns="http://www.w3.org/2000/svg"><path opacity=".3" d="M11.5 21.8182c-6.3514 0-11.5-4.8851-11.5-10.9091v2.1818C0 19.1149 5.1486 24 11.5 24 17.8503 24 23 19.1149 23 13.0909v-2.1818c0 6.024-5.1497 10.9091-11.5 10.9091z" fill="#ABABAB"/><path d="M11.5 21.8182c6.3513 0 11.5-4.8842 11.5-10.9091C23 4.8841 17.8513 0 11.5 0S0 4.8842 0 10.9091c0 6.0249 5.1487 10.9091 11.5 10.9091z" fill="#fff"/><path d="M11.5 13.0909c1.2703 0 2.3-.9768 2.3-2.1818s-1.0297-2.1818-2.3-2.1818c-1.2702 0-2.3.9768-2.3 2.1818s1.0298 2.1818 2.3 2.1818z" fill="#ABABAB"/></svg>